<?xml version="1.0" encoding="UTF-8"?>
<svg xmlns="http://www.w3.org/2000/svg" xmlns:xlink="http://www.w3.org/1999/xlink" width="512" height="512" viewBox="0 0 60 60" version="1.1"><!-- Generator: Sketch 51.3 (57544) - http://www.bohemiancoding.com/sketch --><title>097 - Autism</title><desc>Created with Sketch.</desc><defs/><g id="Page-1" stroke="none" stroke-width="1" fill="none" fill-rule="evenodd"><g id="097---Autism" transform="translate(-1.000000, 0.000000)" fill="#000000" fill-rule="nonzero"><path d="M36.732,42.124 C36.2481887,41.8578879 35.6402573,42.0342685 35.374,42.518 C34.7815495,43.5443882 34.0352091,44.4738569 33.161,45.274 C31.6124113,46.7967251 30.2575192,48.5046146 29.127,50.359 C27.484,52.884 26.661,54 24.37,54 L19.63,54 C17.339,54 16.516,52.884 14.873,50.359 C13.7424808,48.5046146 12.3875887,46.7967251 10.839,45.274 C7.23,41.849 7.359,39.01 7.522,35.416 C7.556,34.672 7.59,33.916 7.59,33.14 C7.56963752,31.6943972 7.40820531,30.2542344 7.108,28.84 C6.624,26.171 6.021,22.851 6.408,14.54 C6.949,2.765 20.286,2.024 20.81,2 L23.146,2 C23.206,2 29.139,2.309 33.355,5.773 C33.6294848,6.01202907 34.0121665,6.0830451 34.3541373,5.95841457 C34.6961081,5.83378404 34.9433576,5.53319092 34.9996769,5.17360099 C35.0559963,4.81401105 34.9124905,4.45221742 34.625,4.229 C29.882,0.33 23.5,0.013 23.19,0 L20.767,0 C20.609,0.008 5.036,0.838 4.411,14.453 C4.282,17.215 4.264,19.453 4.311,21.314 C3.6876866,21.0078906 2.95686324,21.0119631 2.337,21.325 C0.786,22.106 0.837,25.795 1.161,28.783 C1.62372938,31.5525557 3.19480793,34.0140686 5.512,35.6 C5.355,39.126 5.299,42.774 9.462,46.727 C9.845,47.09 10.191,47.454 10.516,47.816 L10.516,56.96 C10.516,58.6168542 11.8591458,59.96 13.516,59.96 L30.487,59.96 C32.1438542,59.96 33.487,58.6168542 33.487,56.96 L33.487,47.815 C33.812,47.453 34.159,47.088 34.543,46.724 C35.5663498,45.782524 36.4385764,44.6890366 37.129,43.482 C37.256557,43.2492974 37.2863894,42.9754361 37.2119273,42.7207271 C37.1374653,42.466018 36.9648156,42.2513507 36.732,42.124 Z M3.148,28.538 C2.894,26.162 2.97,23.682 3.307,23.091 C3.624,23.074 4.143,23.562 4.444,23.983 C4.57544831,25.7334953 4.80918085,27.4748028 5.144,29.198 C5.42070333,30.4943374 5.57007968,31.81461 5.59,33.14 L5.59,33.15 C4.33419177,31.8906622 3.48374731,30.2844993 3.148,28.538 Z M31.484,56.96 C31.484,57.5122847 31.0362847,57.96 30.484,57.96 L13.513,57.96 C12.9607153,57.96 12.513,57.5122847 12.513,56.96 L12.513,50.419 C12.75,50.771 12.976,51.119 13.193,51.451 C14.785,53.892 16.158,56 19.63,56 L24.37,56 C27.842,56 29.215,53.892 30.804,51.451 C31.021,51.117 31.247,50.771 31.484,50.419 L31.484,56.96 Z" id="Shape"/><path d="M52,23 L47.964,23 C47.987533,22.8343648 47.9995618,22.6672981 48,22.5 C48,20.5670034 46.4329966,19 44.5,19 C42.5670034,19 41,20.5670034 41,22.5 C41.0004382,22.6672981 41.012467,22.8343648 41.036,23 L38,23 L38,19.966 C38.5523057,20.0442878 39.1152973,19.9908327 39.643,19.81 C40.7852036,19.4218236 41.6439391,18.4684303 41.911,17.292 C42.1726918,16.1657743 41.8612892,14.9829783 41.0789461,14.1316227 C40.2966031,13.2802671 39.1442834,12.8702217 38,13.036 L38,9 C38,8.44771525 37.5522847,8 37,8 L24,8 C22.3431458,8 21,9.34314575 21,11 L21,37 C21,38.6568542 22.3431458,40 24,40 L50,40 C51.6568542,40 53,38.6568542 53,37 L53,24 C53,23.4477153 52.5522847,23 52,23 Z M23,11 C23,10.4477153 23.4477153,10 24,10 L36,10 L36,14.5 C36,14.8787721 36.2140024,15.2250352 36.5527864,15.3944272 C36.8915704,15.5638192 37.2969824,15.5272632 37.6,15.3 C38.2535396,14.8378351 39.1521098,14.9529807 39.668,15.565 C39.9586482,15.9283356 40.0652988,16.4054953 39.957,16.858 C39.8397636,17.3508147 39.4787772,17.7495217 39,17.915 C38.5232784,18.0838924 37.9935442,18.0011801 37.591,17.695 C37.2873251,17.4725148 36.8844329,17.4394264 36.5485278,17.6093847 C36.2126226,17.779343 36.0006289,18.1235459 36,18.5 L36,23 L32.966,23 C33.0439378,22.4480167 32.9904887,21.8854312 32.81,21.358 C32.4222955,20.2156678 31.4692865,19.3565588 30.293,19.089 C29.2527331,18.8470121 28.158906,19.0932515 27.3226866,19.7576689 C26.4864673,20.4220864 25.9993838,21.4319584 26,22.5 C26.0004382,22.6672981 26.012467,22.8343648 26.036,23 L23,23 L23,11 Z M23,37 L23,25 L27.5,25 C27.8787721,25 28.2250352,24.7859976 28.3944272,24.4472136 C28.5638192,24.1084296 28.5272632,23.7030176 28.3,23.4 C27.8158734,22.7517326 27.9331196,21.8363279 28.565,21.331 C28.9296726,21.0423299 29.4063193,20.9362447 29.859,21.043 C30.3514337,21.1605394 30.7497086,21.521476 30.915,22 C31.0835295,22.4764276 31.000832,23.0056914 30.695,23.408 C30.4719286,23.711685 30.4385041,24.1149806 30.6085375,24.4512455 C30.778571,24.7875103 31.1231906,24.9996467 31.5,25 L36,25 L36,28.036 C35.8343648,28.012467 35.6672981,28.0004382 35.5,28 C33.5670034,28 32,29.5670034 32,31.5 C32,33.4329966 33.5670034,35 35.5,35 C35.6672981,34.9995618 35.8343648,34.987533 36,34.964 L36,38 L24,38 C23.4477153,38 23,37.5522847 23,37 Z M51,37 C51,37.5522847 50.5522847,38 50,38 L38,38 L38,33.5 C38,33.1212279 37.7859976,32.7749648 37.4472136,32.6055728 C37.1084296,32.4361808 36.7030176,32.4727368 36.4,32.7 C35.7811677,33.1641242 34.9108787,33.0815501 34.3903766,32.5093245 C33.8698745,31.9370988 33.8698745,31.0629012 34.3903766,30.4906755 C34.9108787,29.9184499 35.7811677,29.8358758 36.4,30.3 C36.7030176,30.5272632 37.1084296,30.5638192 37.4472136,30.3944272 C37.7859976,30.2250352 38,29.8787721 38,29.5 L38,25 L42.5,25 C42.8787721,25 43.2250352,24.7859976 43.3944272,24.4472136 C43.5638192,24.1084296 43.5272632,23.7030176 43.3,23.4 C42.8358758,22.7811677 42.9184499,21.9108787 43.4906755,21.3903766 C44.0629012,20.8698745 44.9370988,20.8698745 45.5093245,21.3903766 C46.0815501,21.9108787 46.1641242,22.7811677 45.7,23.4 C45.4727368,23.7030176 45.4361808,24.1084296 45.6055728,24.4472136 C45.7749648,24.7859976 46.1212279,25 46.5,25 L51,25 L51,37 Z" id="Shape"/><path d="M58,0 L45,0 C44.4477153,-3.38176876e-17 44,0.44771525 44,1 L44,6.5 C44,6.87877206 44.2140024,7.22503518 44.5527864,7.39442719 C44.8915704,7.56381921 45.2969824,7.52726324 45.6,7.3 C46.2536631,6.83833145 47.1518651,6.95342987 47.668,7.565 C47.9586482,7.92833557 48.0652988,8.4054953 47.957,8.858 C47.8397636,9.35081472 47.4787772,9.74952167 47,9.915 C46.5232784,10.0838924 45.9935442,10.0011801 45.591,9.695 C45.2873251,9.47251477 44.8844329,9.43942636 44.5485278,9.60938467 C44.2126226,9.77934297 44.0006289,10.1235459 44,10.5 L44,15 C44,16.1045695 44.8954305,17 46,17 L50.5,17 C50.8787721,17 51.2250352,16.7859976 51.3944272,16.4472136 C51.5638192,16.1084296 51.5272632,15.7030176 51.3,15.4 C50.8358758,14.7811677 50.9184499,13.9108787 51.4906755,13.3903766 C52.0629012,12.8698745 52.9370988,12.8698745 53.5093245,13.3903766 C54.0815501,13.9108787 54.1641242,14.7811677 53.7,15.4 C53.4727368,15.7030176 53.4361808,16.1084296 53.6055728,16.4472136 C53.7749648,16.7859976 54.1212279,17 54.5,17 L60,17 C60.5522847,17 61,16.5522847 61,16 L61,3 C61,1.34314575 59.6568542,1.01453063e-16 58,0 Z M59,15 L55.964,15 C55.987533,14.8343648 55.9995618,14.6672981 56,14.5 C56,12.5670034 54.4329966,11 52.5,11 C50.5670034,11 49,12.5670034 49,14.5 C49.0004382,14.6672981 49.012467,14.8343648 49.036,15 L46,15 L46,11.966 C46.5523144,12.043908 47.1152173,11.9904613 47.643,11.81 C48.7852036,11.4218236 49.6439391,10.4684303 49.911,9.292 C50.1726918,8.16577428 49.8612892,6.98297831 49.0789461,6.13162268 C48.2966031,5.28026705 47.1442834,4.87022168 46,5.036 L46,2 L58,2 C58.5522847,2 59,2.44771525 59,3 L59,15 Z" id="Shape"/></g></g></svg>
