<?xml version="1.0" encoding="UTF-8"?>
<svg xmlns="http://www.w3.org/2000/svg" xmlns:xlink="http://www.w3.org/1999/xlink" width="512" height="512" viewBox="0 0 59 58" version="1.1"><!-- Generator: Sketch 51.3 (57544) - http://www.bohemiancoding.com/sketch --><title>007 - Autism</title><desc>Created with Sketch.</desc><defs/><g id="Page-1" stroke="none" stroke-width="1" fill="none" fill-rule="evenodd"><g id="007---Autism" fill-rule="nonzero"><path d="M18.72,50.3 C22.149,51.851 23.652,58 23.652,58 L48.746,57.931 C48.2755957,56.9544122 47.7410951,56.0100165 47.146,55.104 C46.6725523,54.1351747 46.2756732,53.1307732 45.959,52.1 C45.3713088,50.1113891 44.9643241,48.073788 44.743,46.012 C44.3709743,42.844112 44.8486519,39.634284 46.127,36.712 C47.254,34.142 49.211,32.106 50.703,29.753 C52.1821574,27.4555352 52.9787015,24.7853611 53,22.053 C53.056116,19.285616 52.7166887,16.5244021 51.992,13.853 C51.0439103,10.6166836 49.0658224,7.77805373 46.358,5.768 C41.4,1.88 36.342,-0.294 29.938,0.032 C26.7328989,0.255128449 23.5484062,0.712347803 20.41,1.4 C16.992,2.088 13.373,3.366 10.92,5.956 C9.24666038,7.74409793 7.95386958,9.85338818 7.12,12.156 C6.72915176,13.3014161 6.41118297,14.470419 6.168,15.656 C5.75858569,16.9487526 5.26451756,18.2131528 4.689,19.441 C4.5196763,19.814028 4.44579184,20.2233135 4.474,20.632 C4.666,22.016 6.742,22.611 6.759,24.038 C6.73675722,24.3532587 6.63974717,24.6586861 6.476,24.929 C5.25897289,27.4999033 3.76549632,29.930575 2.022,32.178 C1.61,32.683 0.774,33.678 0.878,34.392 C0.952,34.899 1.56,35.32 1.935,35.599 C2.735,36.193 4.364,36.599 4.567,37.671 C4.67208167,38.2169291 4.60607672,38.7819874 4.378,39.289 C3.825,40.456 3.212,41.078 3.647,41.444 C4.082,41.81 5.247,42.689 5.247,42.689 C5.247,42.689 4.14,44.103 4.753,44.537 C5.513,45.077 6.481,45.326 6.739,46.337 C6.81580147,47.1381317 6.73563877,47.9465522 6.503,48.717 C6.42489413,49.4709685 6.52349984,50.2327661 6.791,50.942 C7.15504357,52.3575719 8.57041671,53.2344064 10,52.93 C12.9521039,52.2117262 15.8630511,51.3337685 18.72,50.3" id="Shape" fill="#F3D55B"/><path d="M10.1,16.467 C9.83577449,16.4099931 9.60588112,16.2484489 9.46270432,16.0191777 C9.31952752,15.7899064 9.27526406,15.5124389 9.34,15.25 C9.49723377,14.5559286 9.6942252,13.8714669 9.93,13.2 C10.6254989,11.2743503 11.7038474,9.5095325 13.1,8.012 C14.722,6.3 17.385,5.06 21.014,4.338 C21.5503166,4.24344704 22.0636884,4.59542981 22.1688144,5.12977454 C22.2739403,5.66411927 21.9321645,6.18434211 21.4,6.3 C18.186,6.939 15.881,7.978 14.548,9.386 C13.3395494,10.6858491 12.4062067,12.2164768 11.804,13.886 C11.5945574,14.4871971 11.4196061,15.0998605 11.28,15.721 C11.1540333,16.2485033 10.6305486,16.5794521 10.1,16.467 Z" id="Shape" fill="#F5EFCA"/><circle id="Oval" fill="#F5EFCA" cx="8.869" cy="20" r="1"/><path d="M51,23 L51,36 C51,37.1045695 50.1045695,38 49,38 L36,38 L36,32.5 C34.9686129,33.2735403 33.5181311,33.1359168 32.6506276,32.1822074 C31.7831241,31.228498 31.7831241,29.771502 32.6506276,28.8177926 C33.5181311,27.8640832 34.9686129,27.7264597 36,28.5 L36,23 L41.5,23 C40.7264597,21.9686129 40.8640832,20.5181311 41.8177926,19.6506276 C42.771502,18.7831241 44.228498,18.7831241 45.1822074,19.6506276 C46.1359168,20.5181311 46.2735403,21.9686129 45.5,23 L51,23 Z" id="Shape" fill="#955BA5"/><path d="M32,30.5 C32,31.4469301 32.5350059,32.3125879 33.381966,32.736068 C34.2289261,33.159548 35.2424559,33.0681581 36,32.5 L36,38 L23,38 C21.8954305,38 21,37.1045695 21,36 L21,23 L26.5,23 C25.7264597,21.9686129 25.8640832,20.5181311 26.8177926,19.6506276 C27.771502,18.7831241 29.228498,18.7831241 30.1822074,19.6506276 C31.1359168,20.5181311 31.2735403,21.9686129 30.5,23 L36,23 L36,28.5 C35.2424559,27.9318419 34.2289261,27.840452 33.381966,28.263932 C32.5350059,28.6874121 32,29.5530699 32,30.5 Z" id="Shape" fill="#B49ACA"/><path d="M39.936,16.074 C39.742753,16.8958707 39.1477383,17.5646828 38.3539445,17.8522717 C37.5601507,18.1398606 36.6748268,18.0073704 36,17.5 L36,23 L30.5,23 C31.2735403,21.9686129 31.1359168,20.5181311 30.1822074,19.6506276 C29.228498,18.7831241 27.771502,18.7831241 26.8177926,19.6506276 C25.8640832,20.5181311 25.7264597,21.9686129 26.5,23 L21,23 L21,10 C21,8.8954305 21.8954305,8 23,8 L36,8 L36,13.5 C36.8416465,12.8665321 37.9900688,12.8285972 38.8716847,13.4051418 C39.7533007,13.9816864 40.1789335,15.0489958 39.936,16.074 Z" id="Shape" fill="#955BA5"/><path d="M59,2 L59,15 L53.5,15 C54.2735403,13.9686129 54.1359168,12.5181311 53.1822074,11.6506276 C52.228498,10.7831241 50.771502,10.7831241 49.8177926,11.6506276 C48.8640832,12.5181311 48.7264597,13.9686129 49.5,15 L45,15 C44.4477153,15 44,14.5522847 44,14 L44,9.5 C45.0313871,10.2735403 46.4818689,10.1359168 47.3493724,9.18220743 C48.2168759,8.22849804 48.2168759,6.77150196 47.3493724,5.81779257 C46.4818689,4.86408318 45.0313871,4.72645969 44,5.5 L44,0 L57,0 C58.1045695,0 59,0.8954305 59,2 Z" id="Shape" fill="#B49ACA"/></g></g></svg>
